<svg xmlns="http://www.w3.org/2000/svg" viewBox="0 0 734.49 558.79"><defs><style>.cls-1{fill:#fff;}</style></defs><g id="Capa_2" data-name="Capa 2"><g id="Capa_1-2" data-name="Capa 1"><path class="cls-1" d="M170.92,558.79q-35.26,0-58.27-11.36A84.41,84.41,0,0,1,76.5,513.67Q63.35,491.25,58,459.28t-5.38-73.81q0-31.07-8.37-48.11a68.75,68.75,0,0,0-25.1-27.79l-4.18-1.79Q0,298.23,0,285.07V273.12Q0,260,14.94,250.41L19.72,248q16.73-11.36,24.8-27.79t8.07-47.51q0-41.83,5.38-73.81T76.5,44.82a85,85,0,0,1,36.15-33.46Q135.66,0,170.92,0h3a12.93,12.93,0,0,1,9.56,3.59,12.93,12.93,0,0,1,3.59,9.56V35.26a12.91,12.91,0,0,1-3.59,9.56,12.17,12.17,0,0,1-9,3.59h-3q-28.7.6-42.73,14.64t-18.53,43.33q-4.49,29.28-4.48,77.69,0,35.87-11.35,59.17A81.16,81.16,0,0,1,61,279.1a71,71,0,0,1,24.8,21.21,97,97,0,0,1,14.94,32q5.07,18.54,5.08,41.84,0,47.82,4.48,77.69t18.53,43.63q14,13.74,42.73,14.94h3a12.16,12.16,0,0,1,9,3.58,12.94,12.94,0,0,1,3.59,9.57v22.11a12.35,12.35,0,0,1-13.15,13.15Z"/><path class="cls-1" d="M244.43,463.76A13.28,13.28,0,0,1,230.69,450V167.34a14.39,14.39,0,0,1,3.88-10.16,12.9,12.9,0,0,1,9.86-4.18h27.5a14.29,14.29,0,0,1,14.34,14.34v26.29a75.87,75.87,0,0,1,32.87-30.48Q340,153,369.34,153h23.9a12.41,12.41,0,0,1,9.57,3.88,14,14,0,0,1,3.58,9.86v24.5a12.34,12.34,0,0,1-13.15,13.15H357.39q-32.28,0-50.8,18.83t-18.53,51.09V450a12.9,12.9,0,0,1-4.18,9.86,14.39,14.39,0,0,1-10.16,3.88Z"/><path class="cls-1" d="M435.08,463.76A13.28,13.28,0,0,1,421.34,450V407a13.29,13.29,0,0,1,13.74-13.75h43A13.31,13.31,0,0,1,491.86,407v43a13.29,13.29,0,0,1-13.75,13.74Z"/><path class="cls-1" d="M563.57,0q35.25,0,58.27,11.36A85.14,85.14,0,0,1,658,44.82q13.14,22.12,18.82,54.39t5.68,74.1q0,31.08,8.07,47.82a67,67,0,0,0,24.8,27.49l4.18,2.39q14.94,9.56,14.94,22.71v11.95q0,13.15-14.94,22.11l-4.78,3q-16.74,10.75-24.5,27.49t-7.77,47.81q0,41.83-5.68,73.81T658,513.67a87.68,87.68,0,0,1-36.16,33.46q-23,11.65-57.67,11.66h-3.59a12.34,12.34,0,0,1-13.14-13.15V523.53a12.32,12.32,0,0,1,13.14-13.15H563q29.28-1.2,43.33-14.94t18.53-43.33q4.49-29.58,4.48-77.39,0-36.45,11.06-59.77a75.93,75.93,0,0,1,33.17-35.26,88.36,88.36,0,0,1-24.21-22.11,93.43,93.43,0,0,1-14.94-31.38q-5.08-18.22-5.08-41.53,0-48.4-4.48-78T606.6,63.05q-13.76-14-43-14.64h-3A12.93,12.93,0,0,1,551,44.82a12.91,12.91,0,0,1-3.58-9.56V13.15A12.92,12.92,0,0,1,551,3.59,12.93,12.93,0,0,1,560.58,0Z"/></g></g></svg>